<?xml version="1.0" encoding="utf-8"?>
<!-- Generator: Adobe Illustrator 15.0.0, SVG Export Plug-In . SVG Version: 6.00 Build 0)  -->
<!DOCTYPE svg PUBLIC "-//W3C//DTD SVG 1.1//EN" "http://www.w3.org/Graphics/SVG/1.1/DTD/svg11.dtd">
<svg version="1.1" id="Layer_1" xmlns="http://www.w3.org/2000/svg" xmlns:xlink="http://www.w3.org/1999/xlink" x="0px" y="0px"
	 width="630px" height="445px" viewBox="0 0 630 445" enable-background="new 0 0 630 445" xml:space="preserve">
<path id="bat_1_" opacity="0.5" fill="#BFCE91" d="M167.158,7.992l-21.775,25.151c8.878,10.944-0.264,23.292-6.042,29.318
	c-1.665-1.787-2.359-2.077-3.208-2.295l-0.617-3.434c-1.68,3.281-3.614,4.391-7.329,4.113l2.611,2.315
	c-0.255,0.838-0.371,1.582,0.287,3.934c-8.153,1.792-23.455,3.164-28.173-10.115L70.1,62.465c0,0,26.678,8.211,25.103,28.045
	c0,0,41.109-13.07,55.079,1.118c0.001,0,0.001,0,0.001,0c-4.832-19.316,27.739-47.599,27.739-47.599
	C160.271,35.042,167.158,7.992,167.158,7.992z"/>
<path id="bat_2_" fill="#BFCE91" d="M547.464,286.893l-30.366,2.498c-1.205,12.849-15.1,15.067-22.743,15.307
	c0.058-2.235-0.212-2.872-0.627-3.559l1.797-2.641c-3.202,1.068-5.179,0.556-7.432-2.008l0.226,3.189
	c-0.706,0.385-1.257,0.797-2.334,2.758c-6.482-4.054-17.373-12.964-11.948-24.675l-24.982-17.441c0,0,12.189,22.472-1.552,34.437
	c0,0,35.271,17.797,35.316,36.033c0.001,0,0.001,0,0.001,0c9.219-15.734,48.653-13.361,48.653-13.361
	C525.621,300.173,547.464,286.893,547.464,286.893z"/>
<path id="bat_4_" fill="#BFCE91" d="M170.068,205.267c0,0-14.702-39.675-40.187-14.991c0,0-21.05-32.565-39.942-10.023
	c2.386-29.08-35.972-20.045-35.972-20.045c-1.671-35.44-39.553-16.593-39.553-16.593c15.902-23.38,51.749-32.831,51.749-32.831
	c6.092,23.744,28.58,33.115,28.58,33.115s2.805-3.29,3.755-4.24c1.274-1.273,5.158-4.287,5.158-4.287s-1.487,8.686,0.333,9.407
	c1.82,0.721,6.685-6.627,6.685-6.627s0.768,4.855,0.823,6.655c0.041,1.342-0.167,5.661-0.167,5.661s22.805,8.57,43.504-4.562
	C154.834,145.906,174.489,177.34,170.068,205.267z"/>
<path id="bat_5_" opacity="0.5" fill="#BFCE91" d="M623.995,177.769c0,0-31.115-13.855-31.241,14.706
	c0,0-30.594-6.201-28.242,17.359c-15.401-17.734-31.779,9.436-31.779,9.436c-21.347-18.978-31.808,13.439-31.808,13.439
	c-4.515-22.31,10.211-48.268,10.211-48.268c17.1,9.851,35.146,2.173,35.146,2.173s-0.316-3.465-0.33-4.546
	c-0.015-1.45,0.436-5.382,0.436-5.382s4.165,5.742,5.604,5.1c1.438-0.643-0.058-7.577-0.058-7.577s3.229,2.289,4.297,3.27
	c0.796,0.731,3.164,3.281,3.164,3.281s17.766-8.31,21.85-27.617C581.245,153.144,610.401,159.512,623.995,177.769z"/>
<g>
	<ellipse fill="#BFCE91" cx="315.31" cy="402.45" rx="122.941" ry="14.072"/>
	<g>
		<g>
			<g>
				<path fill="#A9CE1A" d="M407.932,195.897l6.961-5.107c2.371-1.806,4.736-3.588,6.982-5.467
					c4.538-3.684,8.771-7.521,12.421-11.408c1.839-1.925,3.516-3.88,4.974-5.828c1.482-1.923,2.779-3.807,3.871-5.585
					c1.105-1.771,1.983-3.447,2.712-4.952c0.703-1.528,1.251-2.875,1.798-4.172l1.431-3.382c4.6-10.88,17.149-15.972,28.03-11.372
					c8.904,3.764,13.926,12.881,12.935,22.023c-0.569,5.218-2.027,10.221-4.006,14.733c-1.945,4.539-4.422,8.595-7.109,12.231
					c-2.705,3.631-5.649,6.837-8.702,9.719c-3.081,2.857-6.238,5.42-9.437,7.773c-6.43,4.668-13.057,8.435-19.805,11.626
					c-3.398,1.554-6.791,3.022-10.275,4.282c-1.734,0.645-3.482,1.252-5.267,1.81c-0.892,0.279-1.783,0.567-2.704,0.821
					l-2.946,0.819c-8.261,2.297-16.821-2.538-19.119-10.799c-1.773-6.386,0.71-12.948,5.745-16.66L407.932,195.897z"/>
				<path fill="#303030" d="M415.627,226.802c-7.732,0-14.583-5.208-16.657-12.666c-1.909-6.873,0.662-14.332,6.399-18.561
					l9.081-6.676c2.1-1.598,4.272-3.25,6.289-4.936c4.728-3.838,8.847-7.621,12.265-11.262c1.836-1.922,3.463-3.828,4.846-5.677
					c1.418-1.837,2.684-3.664,3.782-5.45c0.927-1.487,1.761-3.008,2.627-4.798c0.523-1.141,0.972-2.208,1.403-3.241l1.787-4.23
					c3.633-8.594,12.011-14.148,21.343-14.148c3.1,0,6.131,0.617,9.009,1.833c9.341,3.949,15.101,13.755,14.007,23.847
					c-0.561,5.125-1.955,10.256-4.145,15.252c-1.845,4.302-4.237,8.419-7.308,12.573c-2.607,3.5-5.521,6.754-8.911,9.955
					c-2.975,2.76-6.111,5.344-9.603,7.912c-6.11,4.436-12.681,8.293-20.096,11.8c-4.164,1.904-7.375,3.242-10.432,4.347
					c-1.866,0.694-3.618,1.296-5.34,1.834l-0.437,0.136c-0.767,0.242-1.537,0.483-2.327,0.702l-2.94,0.817
					C418.752,226.588,417.189,226.802,415.627,226.802z M468.792,138.7c-7.906,0-15.002,4.704-18.08,11.984l-1.781,4.221
					c-0.445,1.06-0.904,2.155-1.467,3.383c-0.927,1.914-1.844,3.588-2.82,5.151c-1.156,1.883-2.494,3.814-3.972,5.729
					c-1.453,1.941-3.172,3.956-5.094,5.969c-3.518,3.746-7.755,7.639-12.585,11.56c-2.061,1.723-4.266,3.4-6.397,5.022l-0.629,0.479
					l-8.502,6.233c-4.556,3.358-6.601,9.29-5.081,14.755c1.648,5.931,7.096,10.073,13.243,10.073c1.241,0,2.484-0.17,3.693-0.507
					l2.945-0.819c0.754-0.207,1.481-0.437,2.207-0.665l0.443-0.14c1.663-0.52,3.356-1.101,5.18-1.779
					c2.978-1.076,6.104-2.38,10.154-4.233c7.195-3.402,13.581-7.15,19.501-11.448c3.373-2.48,6.408-4.981,9.272-7.639
					c3.227-3.046,6.008-6.151,8.486-9.479c2.902-3.926,5.161-7.81,6.903-11.871c2.05-4.679,3.351-9.461,3.872-14.227
					c0.927-8.548-3.952-16.855-11.864-20.2C473.981,139.223,471.416,138.7,468.792,138.7z"/>
			</g>
			<g>
				<path fill="#A9CE1A" d="M222.068,195.897l-6.961-5.107c-2.371-1.806-4.735-3.588-6.982-5.467
					c-4.537-3.684-8.77-7.521-12.421-11.408c-1.838-1.925-3.515-3.88-4.972-5.828c-1.484-1.923-2.781-3.807-3.873-5.585
					c-1.106-1.771-1.983-3.447-2.713-4.952c-0.701-1.528-1.249-2.875-1.798-4.172l-1.429-3.382
					c-4.6-10.88-17.149-15.972-28.03-11.372c-8.906,3.764-13.926,12.881-12.936,22.023c0.57,5.218,2.028,10.221,4.005,14.733
					c1.947,4.539,4.422,8.595,7.11,12.231c2.705,3.631,5.649,6.837,8.703,9.719c3.081,2.857,6.239,5.42,9.437,7.773
					c6.429,4.668,13.056,8.435,19.804,11.626c3.399,1.554,6.792,3.022,10.275,4.282c1.735,0.645,3.483,1.252,5.267,1.81
					c0.892,0.279,1.784,0.567,2.705,0.821l2.945,0.819c8.262,2.297,16.822-2.538,19.119-10.799
					c1.775-6.386-0.709-12.948-5.744-16.66L222.068,195.897z"/>
				<path fill="#303030" d="M214.374,226.802L214.374,226.802c-1.563,0-3.126-0.214-4.644-0.636l-2.946-0.819
					c-0.786-0.217-1.555-0.458-2.321-0.7l-0.438-0.138c-1.721-0.536-3.473-1.139-5.354-1.838c-3.042-1.1-6.252-2.438-10.395-4.332
					c-7.437-3.517-14.007-7.374-20.107-11.803c-3.5-2.574-6.638-5.159-9.601-7.908c-3.401-3.211-6.315-6.465-8.918-9.96
					c-3.074-4.159-5.467-8.276-7.317-12.591c-2.185-4.983-3.579-10.114-4.138-15.238c-1.095-10.094,4.665-19.9,14.006-23.849
					c2.878-1.216,5.909-1.833,9.009-1.833c9.333,0,17.709,5.554,21.343,14.148l1.787,4.23c0.432,1.033,0.88,2.101,1.419,3.274
					c0.851,1.756,1.684,3.277,2.605,4.753c1.104,1.798,2.372,3.625,3.773,5.441c1.399,1.869,3.026,3.775,4.85,5.686
					c3.429,3.652,7.549,7.435,12.256,11.256c2.037,1.703,4.208,3.355,6.309,4.953l0.63,0.48l8.445,6.191
					c5.742,4.233,8.314,11.692,6.405,18.564C228.956,221.594,222.106,226.802,214.374,226.802z M161.208,138.7
					c-2.624,0-5.19,0.523-7.629,1.554c-7.912,3.345-12.791,11.651-11.863,20.202c0.52,4.764,1.821,9.546,3.866,14.212
					c1.748,4.073,4.007,7.958,6.913,11.888c2.475,3.323,5.255,6.428,8.494,9.485c2.852,2.646,5.889,5.147,9.27,7.634
					c5.911,4.291,12.297,8.039,19.512,11.451c4.03,1.843,7.157,3.146,10.12,4.217c1.838,0.684,3.532,1.265,5.193,1.785l0.443,0.14
					c0.726,0.229,1.455,0.458,2.203,0.664l2.95,0.82c1.209,0.337,2.452,0.507,3.693,0.507c6.148,0,11.594-4.142,13.244-10.074
					c1.518-5.465-0.527-11.396-5.089-14.759l-9.124-6.707c-2.132-1.622-4.337-3.299-6.417-5.039
					c-4.811-3.905-9.048-7.797-12.576-11.554c-1.912-2.002-3.63-4.017-5.099-5.979c-1.462-1.895-2.8-3.826-3.964-5.72
					c-0.969-1.552-1.886-3.227-2.797-5.106c-0.579-1.261-1.039-2.356-1.482-3.417l-1.783-4.221
					C176.209,143.404,169.114,138.7,161.208,138.7z"/>
			</g>
		</g>
		<path fill="#A5BC1D" d="M192.638,173.337c0,0-6.635,26.547-6.673,39.551c0,0,6.293-21.334,11.608-34.474L192.638,173.337z"/>
		<path fill="#A5BC1D" d="M437.381,173.337c0,0,6.636,26.547,6.674,39.551c0,0-6.293-21.334-11.608-34.474L437.381,173.337z"/>
		<g>
			<g>
				<g>
					<g>
						<g>
							<path fill="#C45330" d="M392.513,127.257c-25.914,21.903-44.204,16.387-48.3,13.715c-5.193-3.714-2.276-7.71-1.439-11.355
								c0.929-3.472,1.265-8.043,5.065-10.515c3.696-3.23,11.707-2.296,28.136-11.612c16.642-10.169,23.891-28.019,27.751-28.658
								c1.859-0.662,5.468,3.77,5.548,12.887C409.31,100.634,405.814,114.234,392.513,127.257z"/>
							<path fill="#303030" d="M355.765,145.379c-5.927,0-10.353-1.51-12.52-2.923c-5.302-3.79-3.861-8.083-2.809-11.219
								c0.239-0.713,0.465-1.386,0.611-2.018c0.172-0.649,0.311-1.27,0.455-1.906c0.72-3.208,1.615-7.192,5.268-9.629
								c1.791-1.516,4.195-2.195,7.5-3.128c4.751-1.342,11.26-3.181,20.83-8.608c10.018-6.123,16.663-15.338,21.062-21.435
								c3.106-4.309,5.01-6.948,7.125-7.402c0.264-0.078,0.54-0.117,0.821-0.117c3.347,0,6.855,5.502,6.935,14.708
								c0.025,5.962-1.61,21.467-17.293,36.82l-0.096,0.087C377.259,142.47,364.001,145.379,355.765,145.379z M404.111,80.562
								l-0.097,0.016c-0.844,0.274-3.137,3.453-4.979,6.007c-4.564,6.328-11.46,15.891-22.139,22.415
								c-9.992,5.668-17.016,7.653-21.663,8.966c-3.028,0.855-5.027,1.42-6.229,2.47l-0.201,0.151
								c-2.528,1.645-3.199,4.623-3.845,7.503c-0.155,0.685-0.306,1.352-0.475,1.984c-0.169,0.74-0.435,1.528-0.689,2.291
								c-1.091,3.249-1.521,5.043,1.447,7.167c0.307,0.198,3.732,2.305,10.521,2.305c7.636,0,19.999-2.757,35.555-15.89
								c14.673-14.391,16.205-28.722,16.181-34.22C407.436,84.231,404.954,80.974,404.111,80.562z"/>
						</g>
					</g>
				</g>
				<path fill="#B24B2F" d="M391.345,121.053c-27.557,23.293-42.579,17.427-46.936,14.585c-1.36-0.973-2.195-1.964-2.672-2.964
					c-0.792,2.724-0.98,5.516,2.736,8.173c4.355,2.841,19.378,8.708,46.935-14.586c14.147-13.849,17.865-28.313,17.824-37.795
					c-0.007-0.96-0.062-1.859-0.138-2.723C408.51,95.16,404.309,108.363,391.345,121.053z"/>
				<g>
					<path fill="none" d="M404.587,110.844c1.799-3.686,2.987-7.229,3.713-10.5c-6.268-3.455-10.021-8.121-12.266-12.639
						c-1.576,2.158-3.39,4.549-5.477,6.99C393.365,102.735,398.922,107.737,404.587,110.844z"/>
					<path fill="none" d="M397.368,121.969c2.7-3.277,4.837-6.547,6.509-9.725c-8.584-3.593-13.311-9.258-15.903-14.663
						c-1.497,1.588-3.118,3.167-4.877,4.684C385.166,112.26,391.118,118.312,397.368,121.969z"/>
					<path fill="none" d="M368.842,111.175c-11.706,5.438-17.887,5.203-21.003,7.926c-3.801,2.472-4.137,7.043-5.065,10.515
						c-0.837,3.645-3.754,7.642,1.439,11.355c3.647,2.38,18.562,6.999,40.087-7.492
						C373.021,127.384,369.749,117.398,368.842,111.175z"/>
					<path fill="none" d="M408.716,98.227c0.401-2.359,0.564-4.547,0.558-6.509c-0.08-9.117-3.688-13.548-5.548-12.887
						c-1.303,0.215-2.994,2.395-5.299,5.573C400.601,90.675,404.446,95.103,408.716,98.227z"/>
					<path fill="none" d="M386.017,132.296c2.107-1.495,4.271-3.16,6.496-5.04c1.344-1.316,2.583-2.638,3.732-3.96
						c-10.052-4.66-14.432-12.259-16.321-18.49c-1.256,0.936-2.568,1.837-3.949,2.683c-1.21,0.685-2.368,1.31-3.489,1.89
						C373.559,121.032,379.477,128.062,386.017,132.296z"/>
					<path fill="#5B2913" d="M384.3,133.479c0.569-0.382,1.139-0.774,1.717-1.183c-6.54-4.234-12.458-11.264-13.531-22.917
						c-1.269,0.658-2.485,1.258-3.644,1.796C369.749,117.398,373.021,127.384,384.3,133.479z"/>
					<path fill="#5B2913" d="M396.245,123.296c0.385-0.443,0.76-0.885,1.123-1.328c-6.25-3.657-12.202-9.709-14.271-19.705
						c-1.01,0.872-2.071,1.72-3.173,2.542C381.813,111.037,386.193,118.637,396.245,123.296z"/>
					<path fill="#5B2913" d="M403.877,112.244c0.246-0.469,0.482-0.936,0.71-1.4c-5.665-3.106-11.222-8.109-14.029-16.148
						c-0.818,0.959-1.675,1.922-2.584,2.885C390.566,102.985,395.293,108.651,403.877,112.244z"/>
					<path fill="#5B2913" d="M408.3,100.344c0.16-0.72,0.299-1.426,0.416-2.118c-4.27-3.124-8.115-7.552-10.289-13.822
						c-0.732,1.01-1.528,2.119-2.393,3.301C398.278,92.224,402.032,96.889,408.3,100.344z"/>
				</g>
				<g>
					<g>
						<path fill="#303030" d="M355.765,145.379c-5.927,0-10.353-1.51-12.52-2.923c-5.302-3.79-3.861-8.083-2.809-11.219
							c0.239-0.713,0.465-1.386,0.611-2.018c0.172-0.649,0.311-1.27,0.455-1.906c0.72-3.208,1.615-7.192,5.268-9.629
							c1.791-1.516,4.195-2.195,7.5-3.128c4.751-1.342,11.26-3.181,20.83-8.608c10.018-6.123,16.663-15.338,21.062-21.435
							c3.106-4.309,5.01-6.948,7.125-7.402c0.264-0.078,0.54-0.117,0.821-0.117c3.347,0,6.855,5.502,6.935,14.708
							c0.025,5.962-1.61,21.467-17.293,36.82l-0.096,0.087C377.259,142.47,364.001,145.379,355.765,145.379z M404.111,80.562
							l-0.097,0.016c-0.844,0.274-3.137,3.453-4.979,6.007c-4.564,6.328-11.46,15.891-22.139,22.415
							c-9.992,5.668-17.016,7.653-21.663,8.966c-3.028,0.855-5.027,1.42-6.229,2.47l-0.201,0.151
							c-2.528,1.645-3.199,4.623-3.845,7.503c-0.155,0.685-0.306,1.352-0.475,1.984c-0.169,0.74-0.435,1.528-0.689,2.291
							c-1.091,3.249-1.521,5.043,1.447,7.167c0.307,0.198,3.732,2.305,10.521,2.305c7.636,0,19.999-2.757,35.555-15.89
							c14.673-14.391,16.205-28.722,16.181-34.22C407.436,84.231,404.954,80.974,404.111,80.562z"/>
					</g>
				</g>
			</g>
			<g>
				<g>
					<g>
						<g>
							<path fill="#C45330" d="M237.487,127.257c25.913,21.903,44.203,16.387,48.299,13.715c5.193-3.714,2.278-7.71,1.439-11.355
								c-0.929-3.472-1.264-8.043-5.066-10.515c-3.696-3.23-11.706-2.296-28.134-11.612c-16.642-10.169-23.892-28.019-27.752-28.658
								c-1.859-0.662-5.468,3.77-5.547,12.887C220.689,100.634,224.186,114.234,237.487,127.257z"/>
							<path fill="#303030" d="M274.235,145.379C274.234,145.379,274.235,145.379,274.235,145.379
								c-8.236,0-21.494-2.909-37.891-16.769l-0.096-0.087c-15.682-15.353-17.317-30.858-17.293-36.812
								c0.08-9.214,3.588-14.716,6.935-14.716c0.281,0,0.557,0.04,0.822,0.117c2.114,0.454,4.018,3.093,7.125,7.402
								c4.397,6.097,11.043,15.312,21.112,21.464c9.52,5.397,16.027,7.236,20.779,8.579c3.304,0.933,5.708,1.613,7.5,3.128
								c3.652,2.437,4.547,6.421,5.269,9.629c0.143,0.637,0.282,1.257,0.439,1.845c0.16,0.692,0.387,1.366,0.625,2.079
								c1.052,3.136,2.494,7.43-2.746,11.177C284.588,143.869,280.161,145.379,274.235,145.379z M238.681,125.946
								c15.555,13.132,27.918,15.89,35.553,15.89c6.789,0,10.216-2.107,10.584-2.348c2.907-2.08,2.476-3.875,1.385-7.124
								c-0.256-0.763-0.52-1.551-0.705-2.351c-0.154-0.571-0.304-1.239-0.458-1.923c-0.647-2.88-1.317-5.859-3.847-7.503l-0.2-0.151
								c-1.2-1.05-3.201-1.614-6.228-2.47c-4.648-1.313-11.672-3.298-21.615-8.936c-10.727-6.554-17.624-16.116-22.188-22.444
								c-1.843-2.554-4.136-5.733-5.009-6.013l-0.107-0.018c-0.728,0.325-3.283,3.566-3.349,11.179
								C222.476,97.223,224.007,111.554,238.681,125.946z"/>
						</g>
					</g>
				</g>
				<path fill="#B24B2F" d="M238.654,121.053c27.558,23.293,42.58,17.427,46.936,14.585c1.361-0.973,2.195-1.964,2.672-2.964
					c0.792,2.724,0.98,5.516-2.736,8.173c-4.355,2.841-19.377,8.708-46.934-14.586c-14.148-13.849-17.865-28.313-17.825-37.795
					c0.008-0.96,0.063-1.859,0.139-2.723C221.49,95.16,225.691,108.363,238.654,121.053z"/>
				<g>
					<path fill="none" d="M225.413,110.844c-1.799-3.686-2.987-7.229-3.714-10.5c6.269-3.455,10.021-8.121,12.266-12.639
						c1.578,2.158,3.389,4.549,5.477,6.99C236.635,102.735,231.079,107.737,225.413,110.844z"/>
					<path fill="none" d="M232.631,121.969c-2.698-3.277-4.835-6.547-6.508-9.725c8.584-3.593,13.31-9.258,15.903-14.663
						c1.499,1.588,3.119,3.167,4.878,4.684C244.833,112.26,238.881,118.312,232.631,121.969z"/>
					<path fill="none" d="M261.158,111.175c11.705,5.438,17.887,5.203,21.002,7.926c3.802,2.472,4.137,7.043,5.066,10.515
						c0.838,3.645,3.754,7.642-1.439,11.355c-3.647,2.38-18.562,6.999-40.087-7.492C256.978,127.384,260.25,117.398,261.158,111.175
						z"/>
					<path fill="none" d="M221.283,98.227c-0.4-2.359-0.563-4.547-0.556-6.509c0.079-9.117,3.688-13.548,5.547-12.887
						c1.303,0.215,2.994,2.395,5.298,5.573C229.398,90.675,225.554,95.103,221.283,98.227z"/>
					<path fill="none" d="M243.982,132.296c-2.107-1.495-4.27-3.16-6.495-5.04c-1.344-1.316-2.583-2.638-3.733-3.96
						c10.052-4.66,14.433-12.259,16.322-18.49c1.256,0.936,2.568,1.837,3.95,2.683c1.209,0.685,2.368,1.31,3.487,1.89
						C256.441,121.032,250.523,128.062,243.982,132.296z"/>
					<path fill="#5B2913" d="M245.7,133.479c-0.568-0.382-1.139-0.774-1.717-1.183c6.541-4.234,12.458-11.264,13.531-22.917
						c1.27,0.658,2.487,1.258,3.645,1.796C260.25,117.398,256.978,127.384,245.7,133.479z"/>
					<path fill="#5B2913" d="M233.754,123.296c-0.385-0.443-0.759-0.885-1.123-1.328c6.25-3.657,12.203-9.709,14.272-19.705
						c1.009,0.872,2.071,1.72,3.173,2.542C248.187,111.037,243.806,118.637,233.754,123.296z"/>
					<path fill="#5B2913" d="M226.123,112.244c-0.247-0.469-0.482-0.936-0.709-1.4c5.666-3.106,11.222-8.109,14.029-16.148
						c0.819,0.959,1.675,1.922,2.583,2.885C239.432,102.985,234.707,108.651,226.123,112.244z"/>
					<path fill="#5B2913" d="M221.699,100.344c-0.159-0.72-0.299-1.426-0.416-2.118c4.271-3.124,8.115-7.552,10.289-13.822
						c0.733,1.01,1.528,2.119,2.393,3.301C231.721,92.224,227.968,96.889,221.699,100.344z"/>
				</g>
				<g>
					<g>
						<path fill="#303030" d="M274.235,145.379C274.234,145.379,274.235,145.379,274.235,145.379
							c-8.236,0-21.494-2.909-37.891-16.769l-0.096-0.087c-15.682-15.353-17.317-30.858-17.293-36.812
							c0.08-9.214,3.588-14.716,6.935-14.716c0.281,0,0.557,0.04,0.822,0.117c2.114,0.454,4.018,3.093,7.125,7.402
							c4.397,6.097,11.043,15.312,21.112,21.464c9.52,5.397,16.027,7.236,20.779,8.579c3.304,0.933,5.708,1.613,7.5,3.128
							c3.652,2.437,4.547,6.421,5.269,9.629c0.143,0.637,0.282,1.257,0.439,1.845c0.16,0.692,0.387,1.366,0.625,2.079
							c1.052,3.136,2.494,7.43-2.746,11.177C284.588,143.869,280.161,145.379,274.235,145.379z M238.681,125.946
							c15.555,13.132,27.918,15.89,35.553,15.89c6.789,0,10.216-2.107,10.584-2.348c2.907-2.08,2.476-3.875,1.385-7.124
							c-0.256-0.763-0.52-1.551-0.705-2.351c-0.154-0.571-0.304-1.239-0.458-1.923c-0.647-2.88-1.317-5.859-3.847-7.503l-0.2-0.151
							c-1.2-1.05-3.201-1.614-6.228-2.47c-4.648-1.313-11.672-3.298-21.615-8.936c-10.727-6.554-17.624-16.116-22.188-22.444
							c-1.843-2.554-4.136-5.733-5.009-6.013l-0.107-0.018c-0.728,0.325-3.283,3.566-3.349,11.179
							C222.476,97.223,224.007,111.554,238.681,125.946z"/>
					</g>
				</g>
			</g>
		</g>
		<g>
			<path fill="#F2CF2E" d="M280.01,85.743c0,0-17.207-19.31-25.247-20.198c0,0,19.931-13.572,42.29,1.821
				c0,0,6.488-11.742-5.844-28.184c0,0,33.296,3.288,41.928,30.418c0,0,11.51-16.442,3.288-35.351c0,0,42.339,18.497,27.13,59.603
				C363.556,93.852,312.054,127.449,280.01,85.743z"/>
			<path fill="#303030" d="M321.401,108.415c-17.368,0-31.754-7.248-42.757-21.54c-4.699-5.264-18.058-18.904-24.076-19.569
				c-0.737-0.082-1.346-0.613-1.525-1.333c-0.179-0.72,0.109-1.475,0.723-1.893c0.349-0.238,8.706-5.834,20.797-5.834
				c7.528,0,14.803,2.169,21.652,6.451c1.139-3.688,2.399-12.69-6.424-24.453c-0.421-0.562-0.471-1.319-0.126-1.932
				c0.344-0.612,1.017-0.968,1.718-0.894c0.329,0.033,31.534,3.4,42.087,28.004c2.714-5.487,6.995-17.438,1.331-30.467
				c-0.291-0.667-0.144-1.445,0.372-1.96c0.517-0.515,1.296-0.662,1.962-0.369c0.445,0.194,11.042,4.894,19.883,14.832
				c8.245,9.27,16.359,24.95,8.198,47.008c-0.132,0.357-0.374,0.662-0.693,0.87C363.706,95.869,344.211,108.415,321.401,108.415z
				 M259.137,65.197c8.732,4.439,20.654,17.639,22.195,19.368c0.028,0.031,0.056,0.065,0.082,0.099
				c10.303,13.408,23.756,20.207,39.987,20.207c19.806,0,37.563-10.284,40.699-12.199c5.782-16.117,3.208-30.504-7.654-42.772
				c-5.123-5.788-11.003-9.751-14.789-11.952c5.233,17.641-4.611,32.016-5.067,32.667c-0.388,0.552-1.044,0.84-1.72,0.735
				c-0.666-0.102-1.215-0.572-1.422-1.214c-6.434-20.223-27.534-26.672-36.417-28.52c9.58,15.328,3.84,26.121,3.572,26.605
				c-0.242,0.438-0.657,0.753-1.144,0.868c-0.486,0.114-0.999,0.019-1.411-0.265c-6.78-4.668-14.009-7.035-21.485-7.035
				C267.887,61.79,262.422,63.689,259.137,65.197z"/>
		</g>
		<path fill="#F2CF2E" d="M280.01,85.743c0,0-17.207-19.31-25.247-20.198c0,0,19.931-13.572,42.29,1.821
			c0,0,6.488-11.742-5.844-28.184c0,0,33.296,3.288,41.928,30.418c0,0,11.51-16.442,3.288-35.351c0,0,42.339,18.497,27.13,59.603
			C363.556,93.852,312.054,127.449,280.01,85.743z"/>
		<g>
			<path fill="#E0BC27" d="M298.425,74.762c0,0,5.113-12.327-1.476-25.304c4.002,10.841,0.104,17.907,0.104,17.907
				c-22.359-15.393-42.29-1.821-42.29-1.821S276.067,59.369,298.425,74.762z"/>
			<path fill="#E0BC27" d="M333.101,76.297c0,0,7.181-15.797,6.221-29.986c0.783,13.328-6.184,23.288-6.184,23.288
				c-8.632-27.13-41.928-30.418-41.928-30.418c1.13,1.506,2.099,2.973,2.933,4.395C299.409,44.097,325.352,51.941,333.101,76.297z"
				/>
			<path fill="#E0BC27" d="M336.426,34.249c0,0,34.109,21.144,21.685,60.446c1.637-0.923,5.445-0.844,5.445-0.844
				C378.765,52.746,336.426,34.249,336.426,34.249z"/>
		</g>
		<g>
			<path fill="#A9CE1A" d="M447.873,256.277c0-73.384-59.488-182.184-132.874-182.184c-73.384,0-132.873,108.799-132.873,182.184
				c0,12.846,0.703,24.293,2.044,34.502h-0.002c0,0,3.272,53.514,46.401,110.207c0,0,24.193,14.173,52.54,0
				c0,0,5.822-6.452,7.779-26.474c7.82,0.167,15.876,0.169,24.11,0.169c8.081,0,15.992,0,23.676-0.158
				c1.957,20.012,7.777,26.463,7.777,26.463c28.348,14.173,52.539,0,52.539,0c28.051-36.874,39.24-72.396,43.636-92.731
				C446.038,294.138,447.873,277.033,447.873,256.277z"/>
			<path fill="#303030" d="M372.675,409.057c-0.001,0-0.001,0-0.002,0c-9.316,0-18.405-2.182-27.012-6.486
				c-0.198-0.098-0.375-0.233-0.522-0.396c-0.248-0.273-5.915-6.751-8.057-25.848c-7.169,0.127-14.428,0.127-22.083,0.127
				c-7.432,0-15.101,0-22.519-0.137c-2.141,19.105-7.809,25.584-8.056,25.857c-0.148,0.163-0.325,0.299-0.523,0.396
				c-8.608,4.305-17.696,6.486-27.012,6.486c-15.864,0-26.759-6.274-27.215-6.542c-0.2-0.117-0.375-0.271-0.515-0.456
				c-42.444-55.792-46.631-109.335-46.757-111.129c-1.359-10.376-2.049-22.034-2.049-34.652c0-37.178,15.025-83.001,39.212-119.588
				C247.006,95.182,280.898,72.322,315,72.322c34.102,0,67.995,22.86,95.434,64.368c24.188,36.586,39.211,82.41,39.211,119.588
				c0,20.223-1.781,37.851-5.294,52.394c-4.902,22.677-16.514,57.327-43.947,93.388c-0.141,0.185-0.316,0.339-0.516,0.456
				C399.432,402.782,388.539,409.057,372.675,409.057z M347.595,399.574c8.007,3.941,16.441,5.94,25.078,5.94
				c13.481,0,23.346-4.938,25.136-5.898c28.297-37.312,39.141-73.472,43.088-91.736c3.457-14.312,5.205-31.659,5.205-51.603
				c0-36.521-14.799-81.596-38.623-117.634C380.717,98.16,347.874,75.865,315,75.865c-32.873,0-65.715,22.295-92.477,62.779
				c-23.825,36.038-38.625,81.113-38.625,117.634c0,12.497,0.684,24.028,2.03,34.272c0.008,0.062,0.013,0.124,0.015,0.186
				c0.157,2.161,4.427,54.313,45.813,108.881c1.785,0.958,11.651,5.898,25.135,5.898c8.636,0,17.072-1.999,25.08-5.941
				c0.95-1.281,5.491-8.194,7.155-25.232c0.089-0.909,0.854-1.601,1.763-1.601c0.013,0,0.026,0,0.039,0.001
				c7.882,0.169,16.113,0.169,24.073,0.169c8.215,0,15.975,0,23.639-0.159c0.013,0,0.024,0,0.037,0c0.909,0,1.674,0.69,1.763,1.601
				C342.102,391.352,346.627,398.269,347.595,399.574z"/>
		</g>
		<g>
			<g>
				<path fill="#FFFFFF" d="M331.189,235.931c5.555,3.849,10.234,5.551,11.708,4.625c2.022-1.27,2.52-5.939,1.189-12.729
					L331.189,235.931z"/>
				<path fill="#FFFFFF" d="M298.811,236.94c-5.555,3.85-10.235,5.55-11.707,4.625c-2.022-1.271-2.52-5.938-1.191-12.729
					L298.811,236.94z"/>
			</g>
			<path fill="#708A0A" d="M315,235.932c-19.222,0-34.947-10.657-36.225-24.139c-0.056,0.586-0.094,1.176-0.094,1.772
				c0,14.31,16.261,25.911,36.319,25.911c20.059,0,36.319-11.601,36.319-25.911c0-0.596-0.037-1.186-0.093-1.772
				C349.947,225.274,334.224,235.932,315,235.932z"/>
		</g>
		<path opacity="0.8" fill="#A5BC1D" d="M315,216.099c-32.533,0-59.073-25.69-60.537-57.93c-0.042,0.93-0.071,1.865-0.071,2.806
			c0,33.544,27.135,60.737,60.608,60.737c33.474,0,60.608-27.193,60.608-60.737c0-0.941-0.028-1.876-0.07-2.806
			C374.073,190.409,347.533,216.099,315,216.099z"/>
		<g>
			<linearGradient id="SVGID_1_" gradientUnits="userSpaceOnUse" x1="220.7266" y1="324.1914" x2="220.7266" y2="296.7305">
				<stop  offset="0" style="stop-color:#B9E218"/>
				<stop  offset="0.543" style="stop-color:#ADD419"/>
				<stop  offset="1" style="stop-color:#A9CE1A"/>
			</linearGradient>
			<path opacity="0.8" fill="url(#SVGID_1_)" d="M230.292,308.609c0,6.562-4.282,15.582-9.566,15.582
				c-5.282,0-9.565-9.02-9.565-15.582c0-6.56,4.283-11.879,9.565-11.879C226.01,296.73,230.292,302.05,230.292,308.609z"/>
			<linearGradient id="SVGID_2_" gradientUnits="userSpaceOnUse" x1="238.0591" y1="316.5186" x2="238.0591" y2="294.2207">
				<stop  offset="0" style="stop-color:#B9E218"/>
				<stop  offset="0.543" style="stop-color:#ADD419"/>
				<stop  offset="1" style="stop-color:#A9CE1A"/>
			</linearGradient>
			<path opacity="0.8" fill="url(#SVGID_2_)" d="M245.826,303.866c0,5.329-3.477,12.652-7.767,12.652
				c-4.289,0-7.767-7.323-7.767-12.652c0-5.327,3.478-9.646,7.767-9.646C242.349,294.221,245.826,298.539,245.826,303.866z"/>
			<linearGradient id="SVGID_3_" gradientUnits="userSpaceOnUse" x1="332.5459" y1="357.4102" x2="332.5459" y2="329.9492">
				<stop  offset="0" style="stop-color:#B9E218"/>
				<stop  offset="0.543" style="stop-color:#ADD419"/>
				<stop  offset="1" style="stop-color:#A9CE1A"/>
			</linearGradient>
			<path opacity="0.8" fill="url(#SVGID_3_)" d="M342.111,341.829c0,6.561-4.282,15.581-9.565,15.581
				c-5.282,0-9.565-9.021-9.565-15.581c0-6.562,4.283-11.88,9.565-11.88C337.829,329.949,342.111,335.268,342.111,341.829z"/>
			<linearGradient id="SVGID_4_" gradientUnits="userSpaceOnUse" x1="349.8789" y1="349.7373" x2="349.8789" y2="327.4404">
				<stop  offset="0" style="stop-color:#B9E218"/>
				<stop  offset="0.543" style="stop-color:#ADD419"/>
				<stop  offset="1" style="stop-color:#A9CE1A"/>
			</linearGradient>
			<path opacity="0.8" fill="url(#SVGID_4_)" d="M357.646,337.085c0,5.328-3.478,12.652-7.768,12.652
				c-4.289,0-7.768-7.324-7.768-12.652c0-5.326,3.479-9.645,7.768-9.645C354.169,327.44,357.646,331.759,357.646,337.085z"/>
			<linearGradient id="SVGID_5_" gradientUnits="userSpaceOnUse" x1="366.8535" y1="349.7373" x2="366.8535" y2="327.4404">
				<stop  offset="0" style="stop-color:#B9E218"/>
				<stop  offset="0.543" style="stop-color:#ADD419"/>
				<stop  offset="1" style="stop-color:#A9CE1A"/>
			</linearGradient>
			<path opacity="0.8" fill="url(#SVGID_5_)" d="M374.62,337.085c0,5.328-3.478,12.652-7.768,12.652
				c-4.289,0-7.767-7.324-7.767-12.652c0-5.326,3.478-9.645,7.767-9.645C371.143,327.44,374.62,331.759,374.62,337.085z"/>
			<linearGradient id="SVGID_6_" gradientUnits="userSpaceOnUse" x1="258.4688" y1="277.9814" x2="258.4688" y2="253.8848">
				<stop  offset="0" style="stop-color:#B9E218"/>
				<stop  offset="0.543" style="stop-color:#ADD419"/>
				<stop  offset="1" style="stop-color:#A9CE1A"/>
			</linearGradient>
			<path opacity="0.8" fill="url(#SVGID_6_)" d="M266.861,264.309c0,5.758-3.757,13.673-8.393,13.673
				c-4.635,0-8.393-7.915-8.393-13.673c0-5.756,3.758-10.424,8.393-10.424C263.104,253.885,266.861,258.553,266.861,264.309z"/>
			<linearGradient id="SVGID_7_" gradientUnits="userSpaceOnUse" x1="273.4595" y1="273.0605" x2="273.4595" y2="253.4971">
				<stop  offset="0" style="stop-color:#B9E218"/>
				<stop  offset="0.543" style="stop-color:#ADD419"/>
				<stop  offset="1" style="stop-color:#A9CE1A"/>
			</linearGradient>
			<path opacity="0.8" fill="url(#SVGID_7_)" d="M280.274,261.96c0,4.675-3.051,11.101-6.815,11.101
				c-3.764,0-6.814-6.426-6.814-11.101c0-4.674,3.051-8.463,6.814-8.463C277.223,253.497,280.274,257.286,280.274,261.96z"/>
			<linearGradient id="SVGID_8_" gradientUnits="userSpaceOnUse" x1="381.0527" y1="257.2207" x2="381.0527" y2="233.125">
				<stop  offset="0" style="stop-color:#B9E218"/>
				<stop  offset="0.543" style="stop-color:#ADD419"/>
				<stop  offset="1" style="stop-color:#A9CE1A"/>
			</linearGradient>
			<path opacity="0.8" fill="url(#SVGID_8_)" d="M389.446,243.549c0,5.758-3.757,13.672-8.395,13.672
				c-4.633,0-8.392-7.914-8.392-13.672c0-5.757,3.759-10.424,8.392-10.424C385.689,233.125,389.446,237.792,389.446,243.549z"/>
			<linearGradient id="SVGID_9_" gradientUnits="userSpaceOnUse" x1="366.8535" y1="252.3008" x2="366.8535" y2="232.7373">
				<stop  offset="0" style="stop-color:#B9E218"/>
				<stop  offset="0.543" style="stop-color:#ADD419"/>
				<stop  offset="1" style="stop-color:#A9CE1A"/>
			</linearGradient>
			<path opacity="0.8" fill="url(#SVGID_9_)" d="M373.668,241.199c0,4.677-3.052,11.102-6.815,11.102s-6.814-6.425-6.814-11.102
				c0-4.673,3.051-8.462,6.814-8.462S373.668,236.526,373.668,241.199z"/>
			<linearGradient id="SVGID_10_" gradientUnits="userSpaceOnUse" x1="424.8652" y1="294.2207" x2="424.8652" y2="270.125">
				<stop  offset="0" style="stop-color:#B9E218"/>
				<stop  offset="0.543" style="stop-color:#ADD419"/>
				<stop  offset="1" style="stop-color:#A9CE1A"/>
			</linearGradient>
			<path opacity="0.8" fill="url(#SVGID_10_)" d="M433.259,280.55c0,5.757-3.757,13.671-8.394,13.671
				c-4.634,0-8.393-7.914-8.393-13.671s3.759-10.425,8.393-10.425C429.502,270.125,433.259,274.793,433.259,280.55z"/>
			<linearGradient id="SVGID_11_" gradientUnits="userSpaceOnUse" x1="410.666" y1="289.3018" x2="410.666" y2="269.7383">
				<stop  offset="0" style="stop-color:#B9E218"/>
				<stop  offset="0.543" style="stop-color:#ADD419"/>
				<stop  offset="1" style="stop-color:#A9CE1A"/>
			</linearGradient>
			<path opacity="0.8" fill="url(#SVGID_11_)" d="M417.48,278.199c0,4.677-3.052,11.103-6.814,11.103
				c-3.765,0-6.815-6.426-6.815-11.103c0-4.673,3.051-8.461,6.815-8.461C414.429,269.738,417.48,273.526,417.48,278.199z"/>
			<linearGradient id="SVGID_12_" gradientUnits="userSpaceOnUse" x1="385.8945" y1="202.3442" x2="385.8945" y2="178.249">
				<stop  offset="0" style="stop-color:#B9E218"/>
				<stop  offset="0.543" style="stop-color:#ADD419"/>
				<stop  offset="1" style="stop-color:#A9CE1A"/>
			</linearGradient>
			<path opacity="0.8" fill="url(#SVGID_12_)" d="M394.287,188.672c0,5.758-3.757,13.672-8.394,13.672
				c-4.634,0-8.392-7.914-8.392-13.672c0-5.757,3.758-10.423,8.392-10.423C390.53,178.249,394.287,182.916,394.287,188.672z"/>
			<linearGradient id="SVGID_13_" gradientUnits="userSpaceOnUse" x1="402.6562" y1="197.4243" x2="402.6562" y2="177.8608">
				<stop  offset="0" style="stop-color:#B9E218"/>
				<stop  offset="0.543" style="stop-color:#ADD419"/>
				<stop  offset="1" style="stop-color:#A9CE1A"/>
			</linearGradient>
			<path opacity="0.8" fill="url(#SVGID_13_)" d="M409.472,186.323c0,4.676-3.051,11.101-6.815,11.101
				c-3.763,0-6.815-6.425-6.815-11.101c0-4.673,3.053-8.462,6.815-8.462C406.421,177.861,409.472,181.65,409.472,186.323z"/>
			<linearGradient id="SVGID_14_" gradientUnits="userSpaceOnUse" x1="231.8496" y1="214.5859" x2="231.8496" y2="190.4907">
				<stop  offset="0" style="stop-color:#B9E218"/>
				<stop  offset="0.543" style="stop-color:#ADD419"/>
				<stop  offset="1" style="stop-color:#A9CE1A"/>
			</linearGradient>
			<path opacity="0.8" fill="url(#SVGID_14_)" d="M240.243,200.914c0,5.758-3.757,13.672-8.394,13.672
				c-4.634,0-8.392-7.914-8.392-13.672c0-5.756,3.758-10.423,8.392-10.423C236.485,190.491,240.243,195.158,240.243,200.914z"/>
			<linearGradient id="SVGID_15_" gradientUnits="userSpaceOnUse" x1="247.7261" y1="209.667" x2="247.7261" y2="190.1025">
				<stop  offset="0" style="stop-color:#B9E218"/>
				<stop  offset="0.543" style="stop-color:#ADD419"/>
				<stop  offset="1" style="stop-color:#A9CE1A"/>
			</linearGradient>
			<path opacity="0.8" fill="url(#SVGID_15_)" d="M254.541,198.565c0,4.676-3.051,11.102-6.815,11.102
				c-3.764,0-6.814-6.426-6.814-11.102c0-4.674,3.051-8.463,6.814-8.463C251.49,190.103,254.541,193.892,254.541,198.565z"/>
			<linearGradient id="SVGID_16_" gradientUnits="userSpaceOnUse" x1="199.8794" y1="257.0273" x2="199.8794" y2="232.9316">
				<stop  offset="0" style="stop-color:#B9E218"/>
				<stop  offset="0.543" style="stop-color:#ADD419"/>
				<stop  offset="1" style="stop-color:#A9CE1A"/>
			</linearGradient>
			<path opacity="0.8" fill="url(#SVGID_16_)" d="M208.272,243.353c0,5.76-3.757,13.675-8.394,13.675
				c-4.634,0-8.392-7.915-8.392-13.675c0-5.754,3.758-10.421,8.392-10.421C204.515,232.932,208.272,237.599,208.272,243.353z"/>
			<linearGradient id="SVGID_17_" gradientUnits="userSpaceOnUse" x1="215.7563" y1="252.1064" x2="215.7563" y2="232.543">
				<stop  offset="0" style="stop-color:#B9E218"/>
				<stop  offset="0.543" style="stop-color:#ADD419"/>
				<stop  offset="1" style="stop-color:#A9CE1A"/>
			</linearGradient>
			<path opacity="0.8" fill="url(#SVGID_17_)" d="M222.571,241.007c0,4.674-3.052,11.1-6.815,11.1s-6.815-6.426-6.815-11.1
				c0-4.676,3.051-8.464,6.815-8.464S222.571,236.331,222.571,241.007z"/>
		</g>
		<path fill="#A5BC1D" d="M229.895,127.387c0,0,10.4,17.785,24.869,27.089l2.529-7.823L229.895,127.387z"/>
		<path fill="#A5BC1D" d="M398.831,127.387c0,0-10.4,17.785-24.869,27.089l-2.53-7.823L398.831,127.387z"/>
		<g>
			<circle fill="#FFFFFF" cx="315" cy="156.417" r="43.11"/>
			<circle fill="#3B2721" cx="314.999" cy="156.417" r="26.853"/>
			<circle fill="#1E1210" cx="315" cy="156.417" r="16.575"/>
			<circle fill="#FFFFFF" cx="300.898" cy="146.653" r="7.823"/>
			<path fill="#F4F4F4" d="M315,192.863c-22.687,0-41.267-17.528-42.969-39.778c-0.084,1.102-0.141,2.21-0.141,3.332
				c0,23.809,19.3,43.11,43.11,43.11c23.809,0,43.111-19.301,43.111-43.11c0-1.122-0.056-2.23-0.141-3.332
				C356.267,175.335,337.686,192.863,315,192.863z"/>
			<path fill="#303030" d="M315,200.413c-24.259,0-43.997-19.737-43.997-43.996S290.74,112.421,315,112.421
				c24.26,0,43.996,19.736,43.996,43.995S339.26,200.413,315,200.413z M315,114.193c-23.282,0-42.225,18.941-42.225,42.224
				c0,23.283,18.942,42.225,42.225,42.225c23.284,0,42.225-18.942,42.225-42.225C357.225,133.134,338.283,114.193,315,114.193z"/>
			<g opacity="0.2">
				<defs>
					<circle id="SVGID_18_" opacity="0.2" cx="315" cy="156.417" r="56.472"/>
				</defs>
				<clipPath id="SVGID_19_">
					<use xlink:href="#SVGID_18_"  overflow="visible"/>
				</clipPath>
				<g clip-path="url(#SVGID_19_)">
					<polygon fill="#FFFFFF" points="268.485,234.147 262.949,234.147 306.148,72.928 311.685,72.928 					"/>
					<polygon fill="#FFFFFF" points="307.684,234.147 272.693,234.147 315.892,72.928 350.883,72.928 					"/>
					<polygon fill="#FFFFFF" points="323.85,234.147 312.777,234.147 355.977,72.928 367.049,72.928 					"/>
				</g>
			</g>
			<g>
				<path fill="#303030" d="M315,217.379c-33.615,0-60.962-27.347-60.962-60.962c0-33.615,27.347-60.961,60.962-60.961
					c33.616,0,60.963,27.347,60.963,60.961C375.963,190.032,348.615,217.379,315,217.379z M315,102.542
					c-29.707,0-53.876,24.168-53.876,53.875c0,29.708,24.169,53.876,53.876,53.876c29.708,0,53.876-24.168,53.876-53.876
					C368.876,126.709,344.707,102.542,315,102.542z"/>
				<path fill="#303030" d="M373.42,149.687l-3.662-6.067l1.831,3.033l-1.835-3.031c0.111-0.068,11.35-6.979,24.938-22.647
					l5.354,4.643C385.657,142.208,373.914,149.389,373.42,149.687z"/>
				<path fill="#303030" d="M255.461,149.687l3.662-6.067l-1.831,3.033l1.836-3.031c-0.113-0.068-11.351-6.979-24.939-22.647
					l-5.353,4.643C243.223,142.208,254.968,149.389,255.461,149.687z"/>
			</g>
		</g>
		<path fill="#A5BC1D" d="M192.638,173.337c0,0-6.635,26.547-6.673,39.551c0,0,6.293-21.334,11.608-34.474L192.638,173.337z"/>
		<g>
			<path fill="#F2CF2E" d="M283.11,400.101c0,0,0.597-0.665,1.47-2.216c-1.234-4.974-5.224-8.621-9.967-8.621
				c-3.704,0-6.946,2.23-8.78,5.572c-1.833-3.342-5.075-5.572-8.779-5.572c-3.917,0-7.324,2.486-9.088,6.153
				c-1.764-3.667-5.171-6.153-9.087-6.153c-4.744,0-8.734,3.649-9.968,8.626c0.548,0.735,1.099,1.472,1.66,2.211
				C230.57,400.101,254.763,414.273,283.11,400.101z"/>
			<path fill="#303030" d="M256.893,407.285c-0.001,0-0.002,0-0.003,0c-15.626-0.001-26.32-6.158-26.768-6.42l-0.151-0.089
				l-0.105-0.14c-0.563-0.74-1.116-1.48-1.666-2.22l-0.25-0.335l0.101-0.406c1.357-5.475,5.809-9.298,10.827-9.298
				c3.622,0,6.985,1.968,9.087,5.229c2.103-3.261,5.466-5.229,9.088-5.229c3.459,0,6.654,1.763,8.779,4.786
				c2.126-3.023,5.32-4.786,8.78-4.786c5.017,0,9.469,3.822,10.827,9.293l0.085,0.343l-0.173,0.306
				c-0.911,1.618-1.556,2.343-1.583,2.373l-0.113,0.125l-0.15,0.075C275.023,405.134,266.068,407.285,256.893,407.285z
				 M231.165,399.418c1.333,0.733,11.566,6.096,25.726,6.097c0.001,0,0.002,0,0.002,0c8.839,0,17.468-2.061,25.655-6.123
				c0.173-0.219,0.565-0.744,1.083-1.632c-1.254-4.498-4.919-7.61-9.018-7.61c-3.254,0-6.246,1.912-8.003,5.112l-0.777,1.417
				l-0.776-1.417c-1.756-3.2-4.749-5.112-8.003-5.112c-3.437,0-6.614,2.165-8.29,5.651l-0.798,1.659l-0.798-1.659
				c-1.676-3.486-4.853-5.651-8.289-5.651c-4.082,0-7.732,3.086-9.001,7.555C230.302,398.273,230.73,398.846,231.165,399.418z"/>
		</g>
		<g>
			<path fill="#F2CF2E" d="M398.722,400.101c0,0,0.596-0.665,1.47-2.216c-1.234-4.974-5.224-8.621-9.966-8.621
				c-3.705,0-6.945,2.23-8.78,5.572c-1.834-3.342-5.076-5.572-8.78-5.572c-3.917,0-7.324,2.486-9.088,6.153
				c-1.764-3.667-5.17-6.153-9.087-6.153c-4.743,0-8.735,3.649-9.968,8.626c0.548,0.735,1.099,1.472,1.659,2.211
				C346.182,400.101,370.374,414.273,398.722,400.101z"/>
			<path fill="#303030" d="M372.504,407.285c-0.001,0-0.001,0-0.002,0c-15.627-0.001-26.32-6.158-26.768-6.42l-0.151-0.089
				l-0.105-0.14c-0.564-0.74-1.116-1.48-1.665-2.22l-0.25-0.335l0.102-0.406c1.355-5.475,5.808-9.298,10.826-9.298
				c3.622,0,6.984,1.968,9.087,5.229c2.104-3.261,5.465-5.229,9.088-5.229c3.461,0,6.654,1.763,8.78,4.786
				c2.125-3.023,5.32-4.786,8.78-4.786c5.018,0,9.469,3.822,10.825,9.294l0.085,0.342l-0.174,0.306
				c-0.91,1.618-1.555,2.343-1.582,2.373l-0.111,0.125l-0.15,0.075C390.635,405.134,381.68,407.285,372.504,407.285z
				 M346.775,399.418c1.333,0.733,11.566,6.096,25.727,6.097c0.001,0,0.002,0,0.002,0c8.839,0,17.468-2.061,25.653-6.123
				c0.174-0.219,0.566-0.744,1.085-1.632c-1.254-4.498-4.919-7.61-9.017-7.61c-3.255,0-6.248,1.912-8.003,5.112l-0.777,1.417
				l-0.777-1.417c-1.755-3.2-4.748-5.112-8.003-5.112c-3.437,0-6.612,2.165-8.289,5.651l-0.799,1.659l-0.798-1.659
				c-1.676-3.486-4.854-5.651-8.289-5.651c-4.082,0-7.733,3.086-9,7.555C345.914,398.273,346.343,398.846,346.775,399.418z"/>
		</g>
	</g>
</g>
<path id="bat" opacity="0.5" fill="#BFCE91" d="M119.857,225.943c4.383,8.759,1.461,16.144-1.661,20.717
	c-1.106-3.646-5.626-9.01-5.626-9.01l-1.224,3.393c-0.969-0.229-1.912-0.199-2.783,0.135c-0.051,0.02-0.099,0.044-0.148,0.065
	c-0.051,0.017-0.103,0.03-0.153,0.05c-0.871,0.335-1.593,0.943-2.16,1.761l-3.178-1.703c0,0,0.227,7.012,1.842,10.462
	c-5.379-1.313-12.491-4.849-15.089-14.292c0,0-16.983,20.709-6.955,43.693c0,0,1.542-11.324,12.213-6.069
	c0,0-0.456-10.212,8.129-8.139c0,0-0.818-6.345,4.003-8.417c2.43,4.796,9.907,7.789,11.02,7.418c0,0,4.551-6.766,2.93-12.77
	c4.971-1.684,8.605,3.58,8.605,3.58c4.996-7.282,11.487,0.615,11.487,0.615c4.419-11.044,13.139-3.656,13.139-3.656
	C146.333,229.981,119.857,225.943,119.857,225.943z"/>
<path id="bat_3_" fill="#BFCE91" d="M460.501,93.015c3.136,6.266,1.046,11.548-1.188,14.82c-0.791-2.607-4.024-6.445-4.024-6.445
	l-0.876,2.427c-0.692-0.164-1.367-0.143-1.991,0.096c-0.036,0.014-0.069,0.032-0.105,0.047c-0.036,0.012-0.073,0.022-0.109,0.036
	c-0.623,0.24-1.14,0.675-1.545,1.26l-2.273-1.218c0,0,0.162,5.016,1.317,7.484c-3.848-0.939-8.935-3.469-10.794-10.224
	c0,0-12.149,14.814-4.975,31.257c0,0,1.103-8.101,8.736-4.342c0,0-0.326-7.305,5.815-5.822c0,0-0.585-4.539,2.864-6.021
	c1.738,3.431,7.087,5.572,7.883,5.306c0,0,3.256-4.84,2.096-9.135c3.556-1.204,6.156,2.561,6.156,2.561
	c3.574-5.209,8.217,0.44,8.217,0.44c3.162-7.9,9.398-2.616,9.398-2.616C479.44,95.903,460.501,93.015,460.501,93.015z"/>
<path id="bat_7_" fill="#BFCE91" d="M574.986,67.171c-2.455,9.715-9.652,13.486-15.129,14.942
	c1.578-3.563,1.661-10.739,1.661-10.739l-3.215,1.811c-0.599-0.824-1.349-1.431-2.248-1.756c-0.052-0.018-0.104-0.03-0.157-0.047
	c-0.051-0.021-0.101-0.045-0.152-0.063c-0.898-0.322-1.864-0.333-2.85-0.079l-1.325-3.442c0,0-4.509,5.583-5.562,9.336
	c-3.291-4.611-6.438-12.102-2.144-21.155c0,0-26.995,4.7-34.579,29.211c0,0,8.76-7.746,13.517,3.456c0,0,6.47-8.217,11.736-0.875
	c0,0,3.606-5.462,8.727-3.847c-1.321,5.339,2.472,12.654,3.582,13.109c0,0,8.047-2.201,10.803-7.937
	c4.975,2.017,4.274,8.524,4.274,8.524c8.738-2.305,8.489,8.151,8.489,8.151c10.804-5.604,12.623,5.944,12.623,5.944
	C592.803,87.988,574.986,67.171,574.986,67.171z"/>
<path opacity="0.5" fill="#BFCE91" d="M473.27,11.387l-33.205-2.053c-3.314,13.697-18.676,13.92-26.972,12.983
	c0.411-2.407,0.22-3.135-0.122-3.942l2.356-2.574c-3.628,0.654-5.683-0.209-7.716-3.332l-0.257,3.48
	c-0.822,0.305-1.482,0.665-2.953,2.615C399.868,14.727,393.314,7.882,392.679,0h-23.921c-1.276,1.572-2.828,3.013-4.739,4.245
	c0,0,35.329,24.751,32.524,44.464c0.001,0,0.001,0,0.001,0c12.424-15.559,54.667-6.825,54.667-6.825
	C447.588,22.321,473.27,11.387,473.27,11.387z"/>
</svg>
